<mxfile host="app.diagrams.net" modified="2022-05-31T16:38:23.326Z" agent="5.0 (X11)" etag="VDK_DT-3hOtuejaFJdlz" version="16.5.6" type="github">
  <diagram id="R2lEEEUBdFMjLlhIrx00" name="Page-1">
    <mxGraphModel dx="1037" dy="598" grid="1" gridSize="10" guides="1" tooltips="1" connect="1" arrows="1" fold="1" page="1" pageScale="1" pageWidth="850" pageHeight="1100" math="0" shadow="0" extFonts="Permanent Marker^https://fonts.googleapis.com/css?family=Permanent+Marker">
      <root>
        <mxCell id="0" />
        <mxCell id="1" parent="0" />
        <mxCell id="DbXvtxtL0_yIhoBgQ5Oq-19" value="" style="html=1;verticalLabelPosition=bottom;align=center;labelBackgroundColor=#ffffff;verticalAlign=top;strokeWidth=2;strokeColor=#0080F0;shadow=0;dashed=0;shape=mxgraph.ios7.icons.folder;" vertex="1" parent="1">
          <mxGeometry x="200" y="320" width="150" height="150" as="geometry" />
        </mxCell>
        <mxCell id="DbXvtxtL0_yIhoBgQ5Oq-7" style="edgeStyle=orthogonalEdgeStyle;rounded=0;orthogonalLoop=1;jettySize=auto;html=1;" edge="1" parent="1" source="DbXvtxtL0_yIhoBgQ5Oq-1">
          <mxGeometry relative="1" as="geometry">
            <mxPoint x="620" y="279" as="targetPoint" />
          </mxGeometry>
        </mxCell>
        <mxCell id="DbXvtxtL0_yIhoBgQ5Oq-1" value="" style="sketch=0;outlineConnect=0;fontColor=#232F3E;gradientColor=none;fillColor=#4D27AA;strokeColor=none;dashed=0;verticalLabelPosition=bottom;verticalAlign=top;align=center;html=1;fontSize=12;fontStyle=0;aspect=fixed;pointerEvents=1;shape=mxgraph.aws4.data_lake_resource_icon;" vertex="1" parent="1">
          <mxGeometry x="425" y="240" width="78" height="78" as="geometry" />
        </mxCell>
        <mxCell id="DbXvtxtL0_yIhoBgQ5Oq-2" value="" style="shape=image;verticalLabelPosition=bottom;labelBackgroundColor=default;verticalAlign=top;aspect=fixed;imageAspect=0;image=data:image/jpeg,/9j/4AAQSkZJRgABAQAAAQABAAD/2wCEAAoGBxQUExYUExMXFxYXGRkZGRkZGBkZGBkaGR0iGBwZGRkaICoiHRwnHRwcIzUjJysuMTExICE2OzYwOiowMS4BCwsLDw4PHBERHTEnHycwMDAwMjAwMzAwLjAwMDAwMjAwMDAwMDAwMDAwMDAyMDAwMDAwMDAwMDAwMDAwMDAwMP/AABEIALYBFQMBIgACEQEDEQH/xAAcAAACAgMBAQAAAAAAAAAAAAAABAMFAQIGCAf/xABJEAACAQIEAQcFDgUDAwQDAAABAhEAAwQSITFBBRMiUWFxgQYUMpGhFiMzQlJUcpOjsbLR0/AHFYLB0kNTkhck4WJzouI0RGP/xAAYAQEBAQEBAAAAAAAAAAAAAAAAAQIEA//EACMRAQACAQQDAQEAAwAAAAAAAAABEVECEhMhAzFBYYEiQnH/2gAMAwEAAhEDEQA/AOSwj+9ECyjZXDtckZgoGqQd1O50NR25uM2S2pOYvAywAeEaSNRoNo2r7uvJGECicPhh0VPSs29yBuY7fbR/LcHHwOE2/wBq3HVpXRzRh48f6+IW8QEdUfDoxVtVJALZpIUsBPxhqTwERwkeVVWbCqAjEsx1kMTCngI2mOHCvtOI5NwnNuUs4YsAT0bVv8jVZyPgLb3FW5hsPlM/6Vrq20WrHkuLpmdFTT5BZRnWUtAqkyZBbr6R7oEx3RUNiw1wwiSQBMeqdTua++2uRsKSf+2w/Ej3q3IjgRGlKYnkrDh2Aw1nQgKvM2ukCFkzl0iTpx4bUjy/iz43wvE2GtmHGU76+r+1SXcDcWMywCQJJESdBsa+/wB3kPDDbC4fv5m390VHiuRMKFBGHw6GRvZtnw9HSeunP+Lxfr5U38McaGyF8MGOw519e73uucfku4HuWwoZrTtbbKRGZDBiYMab16CbFmSOetDfQg5h39Lh3UnieSsMzBuZw5zBmJNpGzHixOXpa9orOnzT9WfFD4BetlTlYQdNO/WtZFfe/wCVYbhbwW0n3lNIEnj+xUtvkPDsJSzhGjQxYQifA6aRpWueMJxfrz/IokV6F/kWHCmcNhywBOllI7NIk1rh+RcM0zhLI2ibCDf1g6R3U5ownF+vPmYVNYvoPStq/ezD8JFfeMRyThlI94w4HUcOreIKj2Vm1yHYYaWcKY3nCgfeRTnjBxTl8It4m2AQbSkzM5nBA+SNY8TNAxVqPgEnrzv64zV95ucjYdQM1jDyQ2ow6wYE7a7d+tRWeTsLILWcMR2YcA+szGtOaMLxzl8MGKtcbCH+u5/lUN24pMqoUdQJPjJM16BfkjCZSww9iI35lP8AGtU5JwhOUWMMSRtzVvNtO0U5owcc5efZFEivQ68gYfjhsP8AUp+VQYjkbChoOHtKIEZbFtpMmR6B1gDSkeaMJPinLz/IokV6Hscg4YqM2FsTAn3m3vGvCt/5DhfmuH+pt/lTnjBxTl51kUSK9FfyHC/NcP8AU2/yo/kOF+a4f6m3+VOeMLxTl51kUSK9FfyHC/NcP9Tb/Kj+Q4X5rh/qbf5U54wcU5edZFbXXU2wq9F80l9D0Y9GI69Znwr0R/IML81sfU2/yo/kOF+a4f6m3+VSfNGDjnLzpY09IhtuEeGlSi6uYnKIIMAk6SIBnsOtehv5DhfmuH+pt/lR/IcL81w/1Nv8qc0YOKcvOwYQevSDPr041s91SqgKARMtOrTtpsIr0P8AyHC/NcP9Tb/Kj+Q4X5rh/qbf5U54wcU5eeMQAYIAUEaAGduiTuSJIJ169NIor7zyryJhRljC2OO1q32dlFXnjBxTlY2rLnKysAMigSoPAdk+2s3LjAwbiA/+2duzpd9InGlVYs+RVtg5iJAmRMQdoHXUK+VFkZf+4Q6AGbdyS3E6ADXqivCNOqYuIbnVETUrJL6wQ9xWnSVQrpEbgmtsKlsN0WJOoglj95303rXDYznLSujqZ+MFYKRJBgESKmW6YaSpM9HRgAOE9Z3qU03CROvdqaguWLhbMCu87uNOogGP2akS56UspEDL0TMxqTw36q253onUZo6jv+4qAa0ev2t+daXLTZTqB1zJEcdDNYtXG+Myxlj0TOfrnaI4RWbd0yssuWDIynNPCCNI8Kqoef8A/wCqR/7ZnWY4/uK3Ql9A4lZmEgSdjDT7DTCXhxI9RoS8vEj1GiIubu/LTf8A2zt3Zt/GmFFR27ojUjjwPhRbvL8Yj1Gii/bzAiSOqCRrw21qLDYZl1ZiTw6TkeIYmmOfT9g0c+n7BqDRrEkHO47iIPeCKzaTIurM0SZbU+wVtz6fsGjn0/YNBravq3omakmtefTr9ho59P2DQa4hCQQNyOIkeqoA+Rod1iNshnq9IGPZTPPp+waOfTr9hoC3cDCVMioMRZdiIIAHawMzPxTqNB7an59Ov2Gjn0/YNALPHfjG1ZrHPp+waOfT9g0GaKWxt0nLzbKDILZgfR4xpWDfb5dr/i3jxoGqKSXENOty1HYrAjTT42usaVLeunTIyD6SsfuIoGKKU5258q3OvxX2gRpPXPsrY3WyjpJmnfK2UjumZoGaKTW7cjVrU9iPH4uqaDdufKtf8H/yoHKKTF9sxGe1A4BWzCdp1/tU731OxHGfVsOozFAly38T+r+1ZpHE3mZULTPS374/tRQb4bCpdZrbiVa2gYTGksYkaimG8ksKYm2TG3vlzTu6WlY5L+EGvxE08Wq7rW6Y9SzOmJ9wTw3Jlu2oRAQq7DMx7eJmpPM17fWaYoqXLVF/M17fWaPM17fWaZoqBbzNe31mosRZRFLEMYEwCST3CpsXiMizlZtQIUZjr2dVUPlZbbF4ZrNq5dsO7JFzmbnBg2UxBAO0yKsd9WLXAi3dRbihwDOjZlYQYIIPaKY8zXt9Zqj8li2HwwtXWvXXTMxY2rgOV3JCrmknKGjcmBV7hcSHBIDCDBDAqZ7j309DHma9vrNHma9vrNM1FeLQcoBPAEwPE1LCPKpt2bbXGZVCgau5VJJgAtwkkCo+RLi3rKXej0s3oXC6aMVkNx2ns2pLlzk5sbZaxfsoyErmy3mWGUzowXgRHf3VLyPyY+Ftc1YtApLOc90li7nM0nL1k6+yr1V32LbzNe31mlMdes2cvOFhnIUGHIkkDUqCFEkamBTpu5UzPpAlokxAkxxNcT5Zpir922+Dxdu3bRYZXzjplsweFRs4gRGg0OutSLn7RFfXaeZr2+s0eZr2+s1rhMfbukhDJUKToR6Wo3HZTdBUct3rdi0bhZF1AHOXCiEk7Tr28Kk5Ky3rVu7p00VujczrqPisNx21WeUPJBxiJbxNpYVxcQpeZWFxQQCIXYAmZka0z5P4B8Nat2EtKtpNATdLtBJYmSskySfZ21evd9n4tPM17fWaPM17fWaZopYW8zXt9Zo8zXt9ZpmiliqxCqtzKN8s8Z1PXO2+kVrZwttgciW21gxHq0B7akxvw4+gPxUvfsjDxzdp7uZsx6aDKRoPSI3J4bRSO0kynJtqOlbQcBEH+3spjzdO3qrXD4VMoOTLPSgmSCRrxI9Vcfyj5Xm3ijY5qyVGJS1BvRd6ZtjnOb6puGBxyHrqxF+i6dU9piTkVSOsuZBjYgL1xxrezh2JOdQBwysT65ArexhktK5UGCWdtSddzEnTuGlRYPGs75cgCgN0sxPSR8hUAqNAQde6JnSVgMear20ear20r5Qcqeb2TdIB1A1MDU1r5Pcr+cI7QvQuMnRMg5Y19tWpq/ibouvqa7gxrCg6DfiQZE6cNx21FzUMdFEdJdekRHSaI3kgeNVPlh5WNhHt21to5dWc53ZICkDTKrSdf/NWXJuS/bs4zKQ72AR0myhbgW4RlnKTIGpE1KmItb7V5XoJp8r8RoqW7iCVUwBM+wx/aioqwwA1XuH3VZ1WYLdP3wqzoCiikMRh7xYlb2UcF5tWjTrmTr99BR+TPlXaxOKu2rd9nADlUNsKPe3yMUcDUdJd+sRsa6qudwXk8qFrtg2rNxywa4mHtBnGeTJGpBKzvrM71a2sK8RcuF9iCoNsg8fROo7PvpMR8Ls9SeLxhQxzVx9J6AB8NSBUNxMTPRe1GsFlbNvoCAQNvaO3TTlPlJ7Nh7jpJtoWJBAQkcJkkDwpEXNDGH5QKqFFi+YkTlXfth/CrWqPkflG5zvMXbaKSj3QVd2+PDAh0XSW0IkRV2aTEx7SJtmudw3lLzvNDmmRbxCo+e2xGZWdSUBJWVRoJHCrQYi9p70BM/HBA6p/8TXO8n+TfNsjpbuNzMm1bbEZrStBEZeBh2A3761pqptJv4622gUAAQBoBW9IWr94tBsgL15wSNeru19mu9Qcs8qXLb27dpEZrgc9NmAASJ9FWJPSHCsxFzULM0mx2PKlkVLhaN1TMOGo1139Yp22gAAHAR2+uqrkjlLOjO6kPndGCB7izbYpAIXbQmCOJqw88HBXP9DD8QFWYqaWJszRSzYluFlz42/7vSbXblwZGsOoJmTcA9FuiZUzrAMRxg1A4NbpPBFjxbU+wL66Zqk5PwT9G5E7kZr9wiDOWVKkSFIp+5dcas1tBMayderdaCe7eVYzMFkwJIEnq141JXD/AMQ8RiyltMNas31Ium6TkIBCjm1ytcBAMwWB0mdK7HC3pC5oDlQWUMDB47bgHSaVPsMUUUUFZi/hh9EfirHK1h2IyjMOorbbKRG2cjfX1VnGfDj6I/FUPLYtsVDkCIOqFuIkCVI12MairERM9pMzEdLDBK4QZzLdwEdmhI0qsxVi4bo+NlaUYpaJUkZSwlgwIBYaDaasMNiU5vMDKroYDcNNBE1zGJwmfFG6rWShu27mY2nN8C2qSiELsch2PxiImkRGSXU4vNkhQWbQGMviYbTwqqwa3lYZVJE9IAWQR1gw5ifS0k1apjEKFwSVGhOVvYIk78K5nySa6mIxDYi9ZuC645rm7bB4zOwDnm10CsogltQTOtFX/KPJxugqzKUJByPbVxp3+utcHya1vKLbIqTLKtpVB7sux2E67UcugG2ASBLA6hiNDxKgxWnIDKAyhgSTmgBgACAPjAdVP9ff8Z73ev6S8qeTLVxkN63ZuQDl51LLFdpCm6RoeNWnJ9nJZVdAAvRCqqqqxooCkiANNKofKQc5dR7ZTRCrB+cRhrt8E+hnbQyBVryE6rYt2QwL2rSq0KwXoqFOXMBpNWa2x2R7V3xE/q2iPSNZoY9BNx6W/wBI0Vlpa4LdP3wqzqswW6fvhVnQFL4rEqgMsoaCQCQJjvNMUnjratkUqDmYbgHRelx7o8aDfB5cgCsGygCQZ1A7ONM1HatKohVAG8AAfdRduBVLHYAk9w1NBrfzQckTpEzG+u3ZVfjsJdu22t3Fssjgq6nPDA6RI1GnGqzA+X+EuvaRedBvFRbLWnVWLSF1PAkHXsNdRVmJj2nUuY5N8n/NWa7Zt2VYoFZi95jEz8Yt0dvVV7hjeze+c3lj4uaZ8dIqa64VSx2AJPcNTVbY5QRGKgOEC5hNtwF61GndA7Y7kzM+1iKW9LYH0WP/AK7nscj+1J9O9mNu69sCF1tgEHckZxJ33qHnmUIxuvBCvlW0GJGhaSo3Yz66gscW1wQUyRrmzz7Iqn5W5HOKVDdt2nyyV6V1IzCDqpBII0g+2mr3KaPlnPkIDZebfMxkgBtICyPHuBm3qxNehScm8m3MPbFqwllFEws3NzJJJJJ3M8fbpa4XPHTy5v8A0zHt7ZqVmA1NL+eqfQBf6I0/5Ho+2pM2Gap+VuVcrmylu47m3mJU2xlDkovpssmVOg6qcu4q4NrJOk6MN+A76pOV+R3vXedHP2n5sIebuqoZQxYAyphgSduurpq+0m/i0wmJ5+yjW5RLiKwbTMAwkALqPX7aYw+EiS784SIllUadXRA0NVODwotWrdpcJmW2ot5mdCwVBlktGvh7Kcs8lWbi5jaAzT8YnxkHWR99Jq+lg0eTbUAc0kAyBlEA9YHXoKXxV21YZDzRBfLbDJbnKCwUBiuoWSOwb1i9g7VkZltOZ35vMSPAHaequX8qeQr2JvJdtYjEWFtW1GTmrh1FwNnQhxLxAhp07qRF/aHe0UjhuUg7BeburM6shC6dZ2p6oKzF/DD6K/ipnE4FLhBYGRI0Zl0O46JGlLYz4YfRX8VWdBFZthQANh2k+06mpaKKDVhNJ4fk22jZlUgxl9JiIGwgmNPZr1mnqKCHEWQ6lWmD1Eg9e4MisYbDqgIWYJnVmbX+omO6p6KAqO96J7jUlR3fRPcaDn7+TKsbdKN+vXftmio29BP6vxGigtcFun74VZ1WYLdP3wqzoMVz1jl9HxxsrdttkV1yDMLgcZSRJOVtJ00Ijvroa5fAeSCW8V50LVkXSzMWU3d3BDuELFQ5Bie/rpFfS104xBaVNtV+SwZm75BA8PbUN9H5si88yCsWhBYERs0kkanSBTN7lO0uYG4mZd1zKGnqgnetcLcUw7MpZpiGBUAbqh4xxPE+AAcfyf5KKt2wwv3mt2AGVGw6oxNskoAy2xI1eREmd9de9qvst8G07u867Bs0A93RFWFXVMz7SIoVo6AggiQdCDxqSocRiFtqXc5VG5Ow4VFLPiOZRzcYZUEh2IAjgGJ4gwJ4yOM1FYdWt24deZyKS4YQ4jQK07dZ7gOMVnlfir1zDjzG7aD84mYswAyDpMFYgqGPR3031mtPJu9GHsLir9pb6ZlPNm2R6RKiSvpZMsxGs0r7YvxigdEVm7hC+BMAjuml0wd4lWa8wgyVUKQR1GV6tKmtdLVLxI0/2zuJGy9VF2xd0y3QOuUB+4jhQa2MC2abtznIGgKKAD1iBvT9KW0uhek6E8egY/FWwF3rT1MP70DFZrnuVMPeLnLirtvNEKltGVYXcFkJMtrqeNdBSYCo6FyPi3NR9MDUeKif6T11Bds3lZjaFvKw2YsOlxJA017KbxVrMpA0I1U9TDUeFZw93MobaeHURoQe0GRQQ4HEM0i5lDg+iJ269dx203SuPuFbbuic46IxRdJZoMKDwmIrmf4b4y84v89hGw/SRtQyhmZYYBW4rlEkaGeylT7HY0UUUFXjPhx9FfxVaVV4z4cfRX8VWlAUUUUBRRRQFFFFAVHe9E9xqSo73onuNBzjWiEQHQjNp/UaKbxnDxooGcFun74VZ1WYLdP3wqzoMVHduhQSToP3A6z2Vm68AmCYBMDcxwHbXF/w55ZuX7t/nMJdw5IRjn5zLmzOCsXFEPEHTcEdVKmex1dnDBiWdBLfFIBgdvWev9kx8p4O2U1toSoOSVBhm0EdUmKsK4X+I3lYmFvWbTW7xkc4Gt3GtgkOALax0bjnKegesdc07n1FnX11V7A27aM1tFUiGMCCchz6+qrCocTeVULOYWNZHA9lLclcoW7ihFfMyopOjDsnUDiKCwrFZooFMfb97fKBIRssDUGNI8an5pfkj1CluVcKjIWZZKKxXfQx2d1S4PCpbXKggbxJP30GLmFUxAggQCuhA6h2dh0rXnHT0xmX5SjUfSX+6+oU3RQJPhUuHPJMrHRYgEajYGDuf2KiXka0CT09ZBm48QdxExH3cKzd5JUz07gJn/UeNddp27Km85K/CCB8seh48V8dO2gjXki3r6ZkZdXcmN4ma1PI1uQZfTb3x9Pb2D1CrAGs0CC8lW+j6RykkS77nfjqNNjUYxeS4y83chiI6PRzagwZ2gBvWeuLOl8XbJXT0hqp7Rt4cD2E0EWJ5LtXGzOgLaayeG2x7TWj8i2TvbHDi3DQaT1U1h7oZQw4+sdYPaDpU1BHaQKAoEACAOoCpKKKCrxvww+iPxU3z5iYaOGmpHXB28aUxwm+B1oB/wDKpOTuSUspbRWuNzYIBe4zsZk9Ik9I67nsoHFaePr3rM9tb0UCl3FEGMjntCgjad6zYxBYkZWWPlAAHu1pms0Gk9v3UT21vRQLvdIncwJ0gz2AbzUT4gnMuVoECYEGQTI7OHeRTtR3vRPcaCnxnDxorOL4eNYoGcFun74VZ1WYLdP3wqzoEbvJltmLENLbw7r2TAO8Aa1oeSLUEHOdj8Jc0IkAjpabnvqxooFjhRkyBmA6wxzDXNoT6u6oDyWCAOcu6EmecM6wYnq0+/rqwooE8LgAjFucuNM6O5Ya9Q8K3whguvU0juYBvvJ9VM0sNLv0k/Af/v7KBmiikMWhchAXWNWZWygdkxqez1naQ5b+KvKr2EsBbr2VuO6syNkOiEjWDx6wdJ00o/hVyq9+3fzXXuhLihXds7aoCelAG/UB3a1093koMINy4dQdWBiOABERUA5LW2VUXLwVpGlwgBo0mBxE6k7gbk1vd/jTNd2uKKTs4HKsc7dJ4MzSR7IPiDWiXbyk5kVkGxU9M67lSAu2uh8Kw0eopDlDlMW7ZuC3ccD4qqA+gna4V6qXxWNvMgKWrqGZ9G2TEcQW27tdNtal90tTVn1w8GUOXXVfinr04HfURrvNVnJ+NxbXEW7asKp9MpddmWVJGWUAbUAcNDPCKne3eULN8Elo0tDXNEaZtMsMZ6p00FapyY66rctq5PpCyoJ7N59vXtw1DK3oqu81v/OBM/7S7dmvtp20CAATJAEnaT1xwqKgTouV4P0h9L4w8dD/AMqaqDEW8w0MMCCD2j8xI7iag5M5Q53P73cTI2XphddAZUqSCNeual90tfT9FFFVFXjPhx9FfxVaVWYz4cfRH4qs6AooooCiiigKKKKAqO96J7jUlR3vRPcaCoxfDxrFZxfDxrFAzgt0/fCrOqzBbp++FWdAUUUUBRRRQYqv5WxqWsly42VQTJykwCp3gGBManSmsTiFRSzTAjYE7mNhXGeXXnF82zhMWtlVV84ZbiyXACPIQyFPDj40iL6uj/rrsTbNw5CITTMeLRrCwdBO58O0S4XDrbUIghRsJJ313JmlsLyimiM8uohjlZQWAliJERoT3U6jAiQZBoN6hv2gwKnY+sdRHUQdZqaigWwlwkEN6SmG7TwYdhGvs4VJfuFVJClo4LEnukilsdcCFbhn5LAAsSNSNAJkH2FuumbNwMoYbEAiQQYPYdRQcj5Z8itj+aVWv2ebZv8ATDW2zrlJYZ1OgmNeO1WnJyKEtW7li5cZUROduIjFsoy5nM6SdfGr6ksRypbUsudS6g9HWZAmNKt3FCJOT7TXCeatwnRHQXVjqTtwEDxapn5Lsn/STaNFAMb7juFZ5MvIydBw8GCw2LHpE+JM+NOVAlb5Ksj/AEl8Rm9UzFFzA2FEtatgDiUX8qku4iDlUZm6hw7WPAfsA0W8Prmc5mG3yV+iOvtOv3UFXygiZHRMPdQ3EZRctW0DLmBWRqCpG+scKp/I3kV+T86k374uc3A5tUVMoiYzmWIYZjMdEDhXaUVbmqGaKKKgrMZ8OPoj8VWdVmM+HH0R+KrOgKKKKAooooCiiigKjveie41JUd70T3GgqMXw8axWcXw8axQM4LdP3wqzqswW6fvhVnQFFFFAUUUUGDS2DYsC5PpGV7F2X1jXxqLlCzmKAM4JkdFioy7sSB6geBYVlSlhencYgt6TktrHXGggd29A9Vd5pdDEpcVVJJgW+3feJjsE1u/K9kb3VG3HeRIjrmsNyvZBINxQQcpHEGY18RQZwVxhK3W6Ukjo5VgRsZM9e8604rA7GqvlPGYe4ly27oQDDqxIHRMwfVSPJIw2HLt71aJlSVJ2FxlAOkaGVq9UjpKUwvRJtnYap9Hq/pOndlrX+bWeNxRtuY3APHsIpfEcpWmUMtxZBlTrv1HqBEj/AM1FWtKt0rgHBNT2sdAPASfFaj/mlrhcBJBIA1kDeI32is27mQAES7SxUamT9yjaT1CgZJABJgDcnYd5pLNdYk22UJIjOhkiNYhgd+JHHxMy4csQ1zUjUKPRX/I9p8AKboFsJZyKAYmBmI4txOupntpmiigKKKKAooooKzGfDj6I/FVnVZi/hx9EfiqzoCiiigKKKKAooooCo73onuNSVHe9E9xoKjF8PGsVnF8PGsUDOC3T98Ks6rMGwGUnQAak91NtjbY0LigYopbz+38sUef2/ligZpXH4g20Z1ttcIiEWMxkgaZiBxms+f2/lik+UcWzCLT2YO+cuPEFf3r2ahpgOUy7M72LtvKAoLZXB1IYKLZYyCNZ6hTwxqHg/wBXc/xqswtxkbovayFjMvcZspM6ZpAOp/Z0tPP7fyxVn2gOIT5LfVv/AI1qcQp/03P9B/vW3n9v5Yo8/t/LFRSqcoq8DmbvS2zIADAJ3J0249dM+cH/AGX/APh/lWfP7fyxR5/b+WKA50/7T/Z/5VqbrcLJ9afnUeKxKOpUXSk/GUgMPWCKWKL87uetPH4s0HP+UPlbZt4+zhmN1WDWcwXJkJvNlUEHVtSuo234V2Vu0FmBuZPWT2mqu5h7ZYOcQ0gysi2cvYCUkDxrYqskjFXBM6SpA7pU+rbsq1HyC5XFFV2DuokzeLyR6RGkCNAAIpjz+38sVAzRS3n9v5Yo8/t/LFAzRS3n9v5Yo8/t/LFAzRS3n9v5YoGPt/LFAri/hx9EfiqzqvvKGcODIiJB0kNtHr48KsKAooooCiiigKKKKAqO96J7jUlR3vRPcaCoxfDxrFGMO3jRQfILfl/jRAOKuSOq1h46hvbnase73Fn/APZee2zhvH/Toorv2acOTdLB8u8ZI/7ho1n3nDT2R73WLnl5jI6OJadImzho7Z976qzRTZpwm6UXu7x/zj7Gx+nR7u8f84+xsfp1mips04N0se7vH/OPsbH6dHu7x/zj7Gx+nWaKbNODdLHu7x/zj7Gx+nR7u8f84+xsfp1mimzTg3Sx7u8f84+xsfp0e7vH/OPsbH6dZops04N0se7vH/OPsbH6dHu7x/zj7Gx+nWaKbNODdLHu7x/zj7Gx+nR7u8f84+xsfp1mimzSb5Y93eP+cfY2P06Pd3j/AJx9jY/TrNFNmnBulj3d4/5x9jY/To93eP8AnH2Nj9Os0U2acG6WPd3j/nH2Nj9Oj3d4/wCcfY2P06zRTZpwbpYby75Q+cj6jD/p03ivLu+Dpibo3/0MKdJIHxBrEUUU2acLuln/AKhYqSPPL0QCIsYbfc6ZfGe/vpi75e40W7bNi7ssPi28P7Zt0UVNmnC7pQJ/EPF8cbe+ow3+Na2/4hY4z/3lyJ095w4MRx6B1ooq7NOFuWB/EPHR/wDmXPqsPv8A8NRR/wBQ8d88ufVYf/Ciirs04Y3ymwX8QMczx53cIidbWHB3A4J1TUX/AFGxfz2/9RhvX6Ps9tFFTZpwu6W6fxExgDTi7xAIgi3hgR3qbZnjxHCsf9Q8Xxxt+I/2MN6vR9vsoops04N0k73l1j4E4tidf9KyAO6EooorWzTg3S//2Q==;" vertex="1" parent="1">
          <mxGeometry x="624.99" y="120" width="145.68" height="95.72" as="geometry" />
        </mxCell>
        <mxCell id="DbXvtxtL0_yIhoBgQ5Oq-3" value="" style="shape=image;verticalLabelPosition=bottom;labelBackgroundColor=default;verticalAlign=top;aspect=fixed;imageAspect=0;image=data:image/png,iVBORw0KGgoAAAANSUhEUgAAAQsAAAC9CAMAAACTb6i8AAAAY1BMVEX///9BgMMzecA4fMGRstp/ptS3zOY+fsLu8/rW4vE+gMNXjcnm7vcsdr/G1+vz9/vD1Opsms/f6fTP3e54otJaj8pQiceKrthlls0ecb2oweGZt9xJhsa7z+eivd/3+v0Qbbvf6MeSAAAHLUlEQVR4nO2bf4OiLBDHC8sfJVlppmZ57/9VPoAa6IDZ5bO3e/f9/LXLjKCzMAPM7GoFAAAAAAAAAAAAAAAAAAAAAAAAAAAAAAAAAAAAAAAAAAAAAAAAAAAAAAAA4Cey8XZ2glpIi8AhVdSnW2T2tacq3okOeWYWvesXfe8UGy9woGzhlErWnsfzu+5rb9FhIRnywaiat/m6T3ay8dZ2Ols4pFqN7899X/uAyllFhswtat/DFtyzw3ZCemEOqalY9lOjtmiz/XjEtLR0wr/DGklCJ9NSg7jry9nNgMaqlXztZ/9Y4tv2evjTL/E9iJlYe6X//w/kZ1sXQrpxCodkymVc7bLzYMCHXYm6WP0EE851V1skTVrJN9xUh0WW2MbpHVUcmeE7FetGaOd23zpwi439eTbhO1WoC4Jm3J5mjLfvxxg7HRewhTNqtnutVzG1g8tXscVU8RVr8yuOzPr8VEztbDFqjU/cfHWP7yPr029wLZkdrmIqd0iJdia0a7t2afq9wqEzMS/uXH5rMW4c/xEDPrHOZhFHivSgiTqE9Nz9eHhJKrQj2lfboTEeebB7KHa8nyQTtq6HCj5XczCQy4N53Xzkjw+N8RMIz0P/uzpwZQkWZNX94D+EW9Mr9R8jZIGaFFXvieKMtdOEONjfIPY19DTVGFJjwodGs6/fIvLHPP9cCRH5v/P2mZwGXm2+aKVmCltilRy1Cy2pP060wysNB5UafrfUL/Yg7pj3wop4zpJa/iWR+u7dcE9xVdFm935vhIMOdfxMpIn22ea5M9IPBbX++1YkbLJ+03ghUddypn+JmhY8HTY2alSW2h95h4M+rtrmhd5y8cG80HslI+RV5OjLLq3kTI+o/H1bxKWwqJeNm9XE8BZYJNF103Ol4a0xpMZm4WxvPujmpzh5IXmHeMtYwMhfTE1t2z3a303jX6hjiKUXCch1yV9GJjiNHIEl2CmPmn8+XBNrLFEufoWpnNgUZKfhqycd7KRfebmNWswWx5L3/KK+M9RSK78GHuth0S438ohqe3SGMXbCV7KXtkiWWiOzY6oNth1o65ga5HUfRGtzjH39VkydZ4szX8h3HvgzE2K1xVSehA9NIWyhsyPP9IvYDmT9z6xa9/0Fc2LqPFv4bG29dn+bwy7v2VlsUedu6nFIr7T2Ke1/rjeNbo71j7vFbHGSk5eG2r+MWbYIlbtYf8kL/UFm2aLddt6+5IX+IHNsoTzn+jd29BThO3u49TzizqqStHD1zJd6e3khPM6wXo3+Zp1H5thCJSaXyVAfdL7XHlMnUsxsdBWpbSGjPckkC1sn2j4LxdSrDCLLXOV8tr8Y3csa+4uLzPQMlXf58A5gEVv47QpZJrl2/PXRvnMwN/W+s5R5hcvw4fI26G+RfWfaXmotlatPNNNSO6ZyM2xvLKrTo415ZYtIXX+yf+K4/sIWqTLFOIHylzJti6NKlXiXxYaLTtkTuoITLTSTwI3RbKTB77pV+ZE0M0mG/Z0+9Z2t21zQFIP7Tksc0fedZhI4MW407fed+5Fap2fen35oiy4XsOQCmR1Tze1MEjyvtc0E8jCmCrZGCL2P+vswpt5aUyzqNmfnR8wDesK5Lc+h8yO8vWXSeRTOVNwIS9tzTty22CqzL1zsFRrZXhrmmhmJYj0v4mHGeaAXkf5mbBWdtji1pvgXUso9LlsUauPNv6B66ftgt0VzUVnDhTbeEpoIfiKkR7fUkj6+k9a+8rPvp1tgDVH0p3J/VluEtTLFkhdZN2flDW/eqcuR7qsmzflwlLL74oR0O+n+bLaIA3V3s56TU5jLw1kDLQ/A8+u15FeSeq2g3wG1h9Vdbxp67p2sgbbY4qxqcbx8ibubJzdXDbTHmvl1fO0EyMfaugBaFVPz/gYuIYO+OS9StpPbimKR+4onR5ru7RHSh1M4yhArB3Yj7c/rR5VVfmatGzpoGwzSyrccXIkt7u3BlKTaDQ7Vb1W5fBua4pbe9zR4jm1RqdPYVElos3+k9/wn101naXXbRAVxh2Nb7JSH2cZnK/LxInrcNnH+Zj1DHDlZ6ZrGF3R9uSXCRZi/WDTFISg8rbJVs43Ivf7YFl1i0hHRMlkHuzqJw3D6Zobg85jKn3VBpNaV66x3wrg+S4a0ousqS1tWWVakMXEDDlvY8cSBKXqsLttTFG/HPU3zaUz1ePacie6YKthy/d9Y9piaFGJebFcHcrx42xZhsZJ93d88qNws//zVpS6aV/9vJqtuzRqR/VjbvGFJS716EzKocoRXsU8N/QvZMwTesP5iPRne5WTIjv4q9vM3I0mV7x3InjKXUFFc/YGfK4iGca/QGLuphAyaq6W9zfyHpcT9JCjS4e9OCtVTtvVve3oR85M4H9OFdgWip2U6AgAAAAAAAAAAAAAAAAAAAAAAAAAAAAAAAAAAAAAAAAAAAAAAAAAAAAAAgP+Z/wC2QJmiQWWEbQAAAABJRU5ErkJggg==;" vertex="1" parent="1">
          <mxGeometry x="564.99" y="149" width="60" height="42.47" as="geometry" />
        </mxCell>
        <mxCell id="DbXvtxtL0_yIhoBgQ5Oq-4" value="" style="shape=image;verticalLabelPosition=bottom;labelBackgroundColor=default;verticalAlign=top;aspect=fixed;imageAspect=0;image=https://images.credly.com/images/6fb8f5a0-4baf-4534-b275-c19409c73481/Watson_Analytics_Explorer_Deep_Analytics_Ed_Found_Comp_V12.x.png;" vertex="1" parent="1">
          <mxGeometry x="636" y="230" width="104" height="104" as="geometry" />
        </mxCell>
        <mxCell id="DbXvtxtL0_yIhoBgQ5Oq-5" value="" style="shape=image;verticalLabelPosition=bottom;labelBackgroundColor=default;verticalAlign=top;aspect=fixed;imageAspect=0;image=https://powerbicdn.azureedge.net/cvt-20098da258193613e4e7b11ec76a29b781d0e8f8b64d4dc09f5ce5e08ce4aca4/pictures/shared/placeholder/content-4-ai.png;" vertex="1" parent="1">
          <mxGeometry x="624.99" y="340" width="160.28" height="90" as="geometry" />
        </mxCell>
        <mxCell id="DbXvtxtL0_yIhoBgQ5Oq-6" value="" style="endArrow=classic;html=1;rounded=0;" edge="1" parent="1">
          <mxGeometry width="50" height="50" relative="1" as="geometry">
            <mxPoint x="500" y="240" as="sourcePoint" />
            <mxPoint x="620" y="190" as="targetPoint" />
          </mxGeometry>
        </mxCell>
        <mxCell id="DbXvtxtL0_yIhoBgQ5Oq-9" value="" style="endArrow=classic;html=1;rounded=0;" edge="1" parent="1">
          <mxGeometry width="50" height="50" relative="1" as="geometry">
            <mxPoint x="503" y="312.25" as="sourcePoint" />
            <mxPoint x="620" y="360" as="targetPoint" />
          </mxGeometry>
        </mxCell>
        <mxCell id="DbXvtxtL0_yIhoBgQ5Oq-10" value="" style="aspect=fixed;html=1;points=[];align=center;image;fontSize=12;image=img/lib/azure2/databases/SQL_Server.svg;" vertex="1" parent="1">
          <mxGeometry x="240" y="130" width="68" height="68" as="geometry" />
        </mxCell>
        <mxCell id="DbXvtxtL0_yIhoBgQ5Oq-22" style="edgeStyle=orthogonalEdgeStyle;rounded=0;orthogonalLoop=1;jettySize=auto;html=1;" edge="1" parent="1" source="DbXvtxtL0_yIhoBgQ5Oq-11">
          <mxGeometry relative="1" as="geometry">
            <mxPoint x="420" y="280" as="targetPoint" />
          </mxGeometry>
        </mxCell>
        <mxCell id="DbXvtxtL0_yIhoBgQ5Oq-11" value="" style="aspect=fixed;html=1;points=[];align=center;image;fontSize=12;image=img/lib/azure2/databases/SQL_Server.svg;" vertex="1" parent="1">
          <mxGeometry x="240" y="246" width="68" height="68" as="geometry" />
        </mxCell>
        <mxCell id="DbXvtxtL0_yIhoBgQ5Oq-12" value="&lt;div&gt;SGBD SQL #1&lt;/div&gt;&lt;div&gt;&lt;br&gt;&lt;/div&gt;" style="text;html=1;strokeColor=none;fillColor=none;align=center;verticalAlign=middle;whiteSpace=wrap;rounded=0;" vertex="1" parent="1">
          <mxGeometry x="230" y="96" width="60" height="30" as="geometry" />
        </mxCell>
        <mxCell id="DbXvtxtL0_yIhoBgQ5Oq-13" value="&lt;div&gt;SGBD SQL #2&lt;/div&gt;&lt;div&gt;&lt;br&gt;&lt;/div&gt;" style="text;html=1;strokeColor=none;fillColor=none;align=center;verticalAlign=middle;whiteSpace=wrap;rounded=0;" vertex="1" parent="1">
          <mxGeometry x="230" y="220" width="60" height="30" as="geometry" />
        </mxCell>
        <mxCell id="DbXvtxtL0_yIhoBgQ5Oq-14" value="" style="shape=image;html=1;verticalAlign=top;verticalLabelPosition=bottom;labelBackgroundColor=#ffffff;imageAspect=0;aspect=fixed;image=https://cdn3.iconfinder.com/data/icons/document-icons-2/30/647713-word-128.png" vertex="1" parent="1">
          <mxGeometry x="220" y="350" width="40" height="40" as="geometry" />
        </mxCell>
        <mxCell id="DbXvtxtL0_yIhoBgQ5Oq-15" value="" style="shape=image;html=1;verticalAlign=top;verticalLabelPosition=bottom;labelBackgroundColor=#ffffff;imageAspect=0;aspect=fixed;image=https://cdn3.iconfinder.com/data/icons/document-icons-2/30/647702-excel-128.png" vertex="1" parent="1">
          <mxGeometry x="300" y="350" width="40" height="40" as="geometry" />
        </mxCell>
        <mxCell id="DbXvtxtL0_yIhoBgQ5Oq-16" value="" style="dashed=0;outlineConnect=0;html=1;align=center;labelPosition=center;verticalLabelPosition=bottom;verticalAlign=top;shape=mxgraph.weblogos.html5" vertex="1" parent="1">
          <mxGeometry x="260" y="400" width="40" height="58" as="geometry" />
        </mxCell>
        <mxCell id="DbXvtxtL0_yIhoBgQ5Oq-21" value="" style="endArrow=classic;html=1;rounded=0;exitX=0.985;exitY=0.353;exitDx=0;exitDy=0;exitPerimeter=0;" edge="1" parent="1" source="DbXvtxtL0_yIhoBgQ5Oq-10">
          <mxGeometry width="50" height="50" relative="1" as="geometry">
            <mxPoint x="420" y="180" as="sourcePoint" />
            <mxPoint x="420" y="250" as="targetPoint" />
          </mxGeometry>
        </mxCell>
        <mxCell id="DbXvtxtL0_yIhoBgQ5Oq-23" value="" style="endArrow=classic;html=1;rounded=0;entryX=0.064;entryY=1.031;entryDx=0;entryDy=0;entryPerimeter=0;" edge="1" parent="1" target="DbXvtxtL0_yIhoBgQ5Oq-1">
          <mxGeometry width="50" height="50" relative="1" as="geometry">
            <mxPoint x="360" y="400" as="sourcePoint" />
            <mxPoint x="420" y="330" as="targetPoint" />
          </mxGeometry>
        </mxCell>
      </root>
    </mxGraphModel>
  </diagram>
</mxfile>
